<svg width="50" height="50" viewBox="0 0 50 50" fill="none" xmlns="http://www.w3.org/2000/svg">
<path fill-rule="evenodd" clip-rule="evenodd" d="M25 4.16667C13.4937 4.16667 4.16667 13.4937 4.16667 25C4.16667 36.5062 13.4937 45.8333 25 45.8333C36.5062 45.8333 45.8333 36.5062 45.8333 25C45.8333 13.4937 36.5062 4.16667 25 4.16667ZM0 25C0 11.1927 11.1927 0 25 0C38.8073 0 50 11.1927 50 25C50 38.8073 38.8073 50 25 50C11.1927 50 0 38.8073 0 25Z" fill="#D8F3DC"/>
<path fill-rule="evenodd" clip-rule="evenodd" d="M19.9823 47.3667C19.7809 47.1063 19.7809 44.789 19.9823 40.4147C17.8247 40.4897 16.4611 40.34 15.8917 39.9657C15.0385 39.4042 14.1833 37.674 13.426 36.4542C12.6687 35.2344 10.9854 35.0417 10.3063 34.7688C9.62708 34.4969 9.45625 33.3855 12.1781 34.2251C14.9 35.0657 15.0323 37.3553 15.8917 37.8897C16.751 38.4251 18.8042 38.1917 19.7344 37.7626C20.6646 37.3334 20.5958 35.7376 20.7625 35.1053C20.9719 34.5147 20.2323 34.3834 20.2167 34.3792C19.3073 34.3792 14.5354 33.3407 13.224 28.7199C11.9135 24.098 13.6021 21.0772 14.5031 19.7792C15.1031 18.9126 15.05 17.0674 14.3438 14.2438C16.9104 13.9147 18.8906 14.7223 20.2844 16.6667C20.2865 16.6772 22.1135 15.5803 25 15.5803C27.8865 15.5803 28.9115 16.474 29.7021 16.6667C30.4927 16.8594 31.125 13.2647 36.0073 14.2438C34.9875 16.2469 34.1344 18.7501 34.7854 19.7792C35.4375 20.8074 37.9937 24.0782 36.424 28.7199C35.376 31.8136 33.3174 33.7001 30.2479 34.3792C29.8965 34.4917 29.7208 34.673 29.7208 34.923C29.7208 35.298 30.1958 35.3386 30.8812 37.0959C31.3396 38.2667 31.3729 41.6122 30.9812 47.1324C29.9903 47.3844 29.2194 47.5539 28.6687 47.6407C27.6927 47.7938 26.6323 47.8803 25.5906 47.9126C24.549 47.9459 24.1875 47.9428 22.7469 47.8084C21.8165 47.7233 20.8929 47.5758 19.9823 47.3667Z" fill="#D8F3DC"/>
</svg>
