<svg width="50" height="50" viewBox="0 0 50 50" fill="none" xmlns="http://www.w3.org/2000/svg">
<path d="M42.6458 4.16655H7.35417C6.95745 4.16104 6.56354 4.23373 6.19493 4.38048C5.82631 4.52722 5.49021 4.74514 5.20583 5.02178C4.92144 5.29843 4.69434 5.62839 4.53748 5.99282C4.38063 6.35725 4.2971 6.74901 4.29167 7.14572V42.854C4.2971 43.2508 4.38063 43.6425 4.53748 44.0069C4.69434 44.3714 4.92144 44.7013 5.20583 44.978C5.49021 45.2546 5.82631 45.4725 6.19493 45.6193C6.56354 45.766 6.95745 45.8387 7.35417 45.8332H42.6458C43.0425 45.8387 43.4365 45.766 43.8051 45.6193C44.1737 45.4725 44.5098 45.2546 44.7942 44.978C45.0786 44.7013 45.3057 44.3714 45.4625 44.0069C45.6194 43.6425 45.7029 43.2508 45.7083 42.854V7.14572C45.7029 6.74901 45.6194 6.35725 45.4625 5.99282C45.3057 5.62839 45.0786 5.29843 44.7942 5.02178C44.5098 4.74514 44.1737 4.52722 43.8051 4.38048C43.4365 4.23373 43.0425 4.16104 42.6458 4.16655ZM16.8542 39.0415H10.6042V20.2915H16.8542V39.0415ZM13.7292 17.6665C12.8672 17.6665 12.0406 17.3241 11.4311 16.7146C10.8216 16.1052 10.4792 15.2785 10.4792 14.4166C10.4792 13.5546 10.8216 12.7279 11.4311 12.1185C12.0406 11.509 12.8672 11.1666 13.7292 11.1666C14.1869 11.1146 14.6504 11.16 15.0893 11.2996C15.5283 11.4393 15.9328 11.6701 16.2764 11.9769C16.6199 12.2837 16.8948 12.6596 17.0831 13.0801C17.2713 13.5005 17.3686 13.9559 17.3686 14.4166C17.3686 14.8772 17.2713 15.3326 17.0831 15.753C16.8948 16.1735 16.6199 16.5494 16.2764 16.8562C15.9328 17.163 15.5283 17.3938 15.0893 17.5335C14.6504 17.6731 14.1869 17.7185 13.7292 17.6665ZM39.3958 39.0415H33.1458V28.979C33.1458 26.4582 32.25 24.8124 29.9792 24.8124C29.2764 24.8175 28.5921 25.038 28.0184 25.444C27.4448 25.85 27.0093 26.4221 26.7708 27.0832C26.6078 27.5729 26.5372 28.0886 26.5625 28.604V39.0207H20.3125V20.2707H26.5625V22.9166C27.1303 21.9314 27.9561 21.1197 28.9509 20.5691C29.9458 20.0184 31.072 19.7496 32.2083 19.7916C36.375 19.7916 39.3958 22.4791 39.3958 28.2499V39.0415Z" fill="#D8F3DC"/>
</svg>
